
	<svg xmlns="http://www.w3.org/2000/svg" xmlns:xlink="http://www.w3.org/1999/xlink" version="1.1"  viewBox="0 0 100 100">




            <g transform="
                    translate(50 50)
                    translate(0 0)  scale(1)  
                    translate(-50 -50)
                    ">


                <g transform="scale(3.3333333333333335) translate(-1.7881393432617188e-7 0.14999878406524658)" id="picture"><path d="M20.5 29H3.8c-1 0-1.8-.8-1.8-1.8 0-1.7 1.3-3.2 3-3.4l5.6-.8-9.8-9.8c-.5-.4-.8-1.1-.8-1.8s.3-1.4.8-1.9 1.1-.8 1.7-.9l-.1-.1c-.5-.5-.8-1.2-.8-1.9s.3-1.4.8-1.9c1.1-1.1 2.8-1.1 3.9 0l.1.1c.1-.6.3-1.2.8-1.7 1-1.1 2.8-1.1 3.9 0l.4.4c.1-.6.3-1.2.8-1.7 1.1-1.1 2.8-1.1 3.9 0l11.4 10.9c1.6 1.5 2.4 3.6 2.4 5.8 0 2.3-1 4.8-2.4 6.3L25.4 27c-1.3 1.3-3.1 2-4.9 2zM2.7 9.6c-.4 0-.9.2-1.2.5-.3.4-.5.8-.5 1.3s.2.9.5 1.2L12 23.1c.1.1.2.3.1.5s-.2.3-.4.3l-6.6.9C3.9 25 3 26 3 27.2c0 .5.3.8.8.8h16.7c1.6 0 3-.6 4.2-1.7l2.3-2.2c1.3-1.3 2.1-3.5 2.1-5.5 0-1.9-.7-3.7-2.1-5.1l-11.5-11c-.7-.7-1.8-.7-2.5 0-.3.3-.5.8-.5 1.2s.1.9.5 1.3l5.9 6.2c.2.2.2.5 0 .7-.2.2-.5.2-.7 0l-7.8-8.1c-.7-.7-1.8-.7-2.5 0-.3.3-.5.7-.5 1.2s.2.9.5 1.2l8 7.9c.2.2.2.5 0 .7-.2.2-.5.2-.7 0L5.6 5.4c-.7-.7-1.8-.7-2.5 0-.3.3-.5.7-.5 1.2s.2.9.5 1.2l9.7 9.3c.2.2.2.5 0 .7-.2.2-.5.2-.7 0L4 10.1c-.3-.3-.8-.5-1.3-.5z"/></g>


            </g>


	</svg>
